<svg xmlns="http://www.w3.org/2000/svg" xmlns:xlink="http://www.w3.org/1999/xlink" width="46" height="46" viewBox="0 0 46 46">
    <defs>
        <path id="yn7b85gyta" d="M0 0L39.278 0 39.278 28.522 0 28.522z"/>
    </defs>
    <g fill="none" fill-rule="evenodd">
        <g>
            <g>
                <g fill="#FFEB00">
                    <path d="M30.893 18.897c0 1.128-.917 2.045-2.044 2.045H2.043C.917 20.942 0 20.025 0 18.897v-6.441c0-.51.195-.973.506-1.331.357-.36.935-.696 1.874-.713h26.469l.02.002c.064 0 .126.013.189.019.406.061 1.082.288 1.578 1.05.159.291.257.619.257.973v6.441zM26.827 22.627c0 1.376-1.121 2.497-2.498 2.497-1.378 0-2.498-1.12-2.498-2.497v-.745h4.996v.745zM7.062 22.627c0 1.376-1.12 2.497-2.498 2.497-1.377 0-2.498-1.12-2.498-2.497v-.745h4.996v.745zM7.86 0h13.174c4.615 0 5.636 4.499 5.775 7.712H2.192c-.016-.77.002-1.222.013-1.413C2.583 3.325 3.891 0 7.86 0z" transform="translate(-199 -140) translate(202 149) translate(8.193 2.7)"/>
                </g>
                <g transform="translate(-199 -140) translate(202 149)">
                    <path fill="#000" d="M10.546 17.441c-.587 0-1.063-.478-1.063-1.064 0-.587.476-1.065 1.063-1.065s1.064.478 1.064 1.065c0 .586-.477 1.064-1.064 1.064m0-3.828c-1.524 0-2.763 1.239-2.763 2.764 0 1.524 1.24 2.763 2.763 2.763 1.524 0 2.764-1.24 2.764-2.763 0-1.525-1.24-2.764-2.764-2.764M28.733 17.441c-.587 0-1.064-.478-1.064-1.064 0-.587.477-1.065 1.064-1.065.586 0 1.063.478 1.063 1.065 0 .586-.477 1.064-1.063 1.064m0-3.828c-1.524 0-2.763 1.239-2.763 2.764 0 1.524 1.239 2.763 2.763 2.763 1.524 0 2.763-1.24 2.763-2.763 0-1.525-1.24-2.764-2.763-2.764"/>
                    <mask id="tpn0ubwcpb" fill="#fff">
                        <use xlink:href="#yn7b85gyta"/>
                    </mask>
                    <path fill="#000" d="M37.579 10.93c0 .396-.323.72-.72.72h-.372c-.08-.156-.168-.298-.259-.434-.545-.892-1.444-1.54-2.509-1.735v-.839h3.14c.397 0 .72.323.72.72v1.568zm-2.493 8.667c0 1.128-.917 2.045-2.044 2.045H6.236c-1.126 0-2.043-.917-2.043-2.045v-6.442c0-.51.195-.972.506-1.33.357-.36.935-.696 1.874-.714h26.469l.02.003c.064 0 .125.012.189.019.406.06 1.082.287 1.578 1.05.158.29.257.619.257.972v6.442zm-3.066 4.73c0 1.376-1.121 2.497-2.498 2.497-1.378 0-2.498-1.121-2.498-2.498v-.744h4.996v.744zm-19.765 0c0 1.376-1.12 2.497-2.498 2.497-1.377 0-2.498-1.121-2.498-2.498v-.744h4.996v.744zM1.7 10.93V9.362c0-.397.323-.72.719-.72h3.208c-.02.274-.036.552-.047.836-.831.149-1.561.572-2.106 1.174-.318.324-.553.673-.715.997h-.34c-.396 0-.72-.323-.72-.719zM13.053 1.7h13.174c4.615 0 5.636 4.498 5.775 7.712H7.385c-.016-.77.002-1.222.013-1.414C7.776 5.024 9.084 1.7 13.053 1.7zM36.86 6.944h-3.417C32.641 2.489 30.11 0 26.227 0H13.053C9.169 0 6.638 2.49 5.835 6.944H2.42C1.085 6.944 0 8.028 0 9.362v1.568c0 1.334 1.085 2.418 2.419 2.418h.074v6.249c0 1.832 1.326 3.355 3.066 3.675v1.054c0 2.314 1.883 4.196 4.198 4.196 2.314 0 4.198-1.882 4.198-4.196v-.986h11.369v.986c0 2.314 1.883 4.196 4.198 4.196 2.314 0 4.197-1.882 4.197-4.196v-1.054c1.741-.32 3.067-1.843 3.067-3.675v-6.249h.074c1.334 0 2.418-1.084 2.418-2.418V9.362c0-1.334-1.084-2.418-2.418-2.418z" mask="url(#tpn0ubwcpb)"/>
                </g>
            </g>
        </g>
    </g>
</svg>
