<svg xmlns="http://www.w3.org/2000/svg" width="48" height="48" viewBox="0 0 48 48">
    <g fill="none" fill-rule="evenodd" stroke-linecap="round" stroke-linejoin="round">
        <g stroke="#000" stroke-width="2">
            <g>
                <g>
                    <g>
                        <g>
                            <path d="M20.589 7.342C22.289 9.238 23.25 11 23.25 11s-4.5 8.25-11.25 8.25c-.96 0-1.873-.167-2.735-.453M6 17.05C2.717 14.605.75 11 .75 11S5.25 2.75 12 2.75c2.305 0 4.348.962 6.04 2.23" transform="translate(-288 -365) translate(24 344) translate(264 21) translate(24 12) translate(0 1)"/>
                            <path d="M14.677 8.374C13.997 7.68 13.048 7.25 12 7.25c-2.071 0-3.75 1.679-3.75 3.75 0 1.05.432 2 1.127 2.68M23.035.085L1.03 22.091" transform="translate(-288 -365) translate(24 344) translate(264 21) translate(24 12) translate(0 1)"/>
                        </g>
                    </g>
                </g>
            </g>
        </g>
    </g>
</svg>
