<svg xmlns="http://www.w3.org/2000/svg" xmlns:xlink="http://www.w3.org/1999/xlink" width="24" height="22" viewBox="0 0 24 22">
    <defs>
        <path id="aqkhhdt3ea" d="M0 0L22.582 0 22.582 22 0 22z"/>
    </defs>
    <g fill="none" fill-rule="evenodd">
        <g>
            <g>
                <g transform="translate(-88 -682) translate(80 673) translate(8.709 9)">
                    <path fill="#FFF" d="M.43 9.714C.224 7.469 1.866 4.752 4.786 4.546c1.946-.137 4.37-.188 7.272-.154L18.614.566c.456-.286.784-.161.983.373.198.535.265 2.353.199 5.456.647.237 1.21.658 1.686 1.263.716.907.838 2.508.548 2.925-.194.278-.88 1.054-2.061 2.328l-.173 4.997c-.248.493-.437.739-.567.739-.194 0-1.089-.128-1.344-.327-.17-.132-2.186-1.357-6.046-3.673H8.456v6.945H5.331l.167-6.945c-1.834-.218-3.087-.76-3.757-1.622C.737 11.73.636 11.959.43 9.714z"/>
                    <mask id="hmq65k9d4b" fill="#fff">
                        <use xlink:href="#aqkhhdt3ea"/>
                    </mask>
                    <path fill="#0E1012" d="M20.285 11.98V7.067c.831.522 1.356 1.442 1.356 2.457s-.525 1.935-1.356 2.456zm-.942 5.45c0 .315-.086.545-.237.633-.151.087-.395.046-.668-.112l-.553-.32V1.416l.553-.32c.273-.158.517-.199.667-.112.152.088.238.318.238.634v15.811zm-2.4-.34l-4.81-2.784c-.071-.041-.153-.063-.235-.063H5.66c-2.603 0-4.72-2.117-4.72-4.72 0-2.602 2.117-4.72 4.72-4.72h6.237c.082 0 .164-.021.235-.063l4.81-2.784v15.135zM5.992 21.06h1.983v-5.875H5.99v5.875zM22.582 9.524c0-1.538-.91-2.91-2.297-3.518V1.618c0-.661-.259-1.19-.71-1.449-.45-.26-1.036-.219-1.608.112l-.762.441c-.008.004-.018.006-.026.011l-5.408 3.13h-6.11C2.539 3.862 0 6.401 0 9.522c0 2.916 2.215 5.322 5.05 5.628v6.378c0 .26.211.471.47.471h2.924c.26 0 .471-.21.471-.47v-6.346h2.856l5.408 3.13c.008.005.018.007.026.01l.762.442c.323.187.65.281.956.281.235 0 .457-.056.653-.169.45-.26.709-.788.709-1.449v-4.388c1.387-.607 2.297-1.98 2.297-3.517z" mask="url(#hmq65k9d4b)"/>
                </g>
            </g>
        </g>
    </g>
</svg>
