<svg xmlns="http://www.w3.org/2000/svg" width="100" height="100" viewBox="0 0 100 100">
    <g fill="none" fill-rule="evenodd">
        <g>
            <g>
                <g transform="translate(-260 -38) translate(260 38) translate(.5 22.5)">
                    <path fill="#FFF" stroke="#000" stroke-width="4.959" d="M48.86 2.48c4.431 0 8.405 1.959 11.102 5.059.37.426.717.873 1.036 1.337.509-.235 1.028-.433 1.554-.592 1.106-.336 2.28-.515 3.498-.515 3.332 0 6.348 1.35 8.532 3.534 2.183 2.183 3.534 5.2 3.534 8.532 0 3.284-1.313 6.262-3.441 8.438-2.128 2.175-5.072 3.548-8.337 3.624h0l-17.478.004c-4.063 0-7.74-1.647-10.403-4.309-2.662-2.662-4.308-6.34-4.308-10.402 0-4.062 1.646-7.74 4.308-10.402 2.663-2.662 6.34-4.309 10.403-4.309z"/>
                    <circle fill="#444B52" style="mix-blend-mode:multiply" cx="67.066" cy="25" r="23" opacity=".3"/>
                    <path fill="#FFF" stroke="#000" stroke-width="4.959" d="M22.48 12.397c5.919 0 11.237 2.571 14.9 6.658.368.411.72.837 1.052 1.277.506-.215 1.018-.403 1.534-.565 1.576-.493 3.254-.759 4.993-.759 4.61 0 8.783 1.869 11.804 4.89 3.021 3.02 4.89 7.194 4.89 11.804 0 4.557-1.825 8.687-4.784 11.699-2.96 3.013-7.055 4.908-11.592 4.993h0l-23.421.003c-5.382-.17-10.228-2.463-13.727-6.069-3.497-3.602-5.65-8.515-5.65-13.931 0-5.523 2.239-10.523 5.858-14.142 3.62-3.62 8.62-5.858 14.142-5.858z"/>
                </g>
            </g>
        </g>
    </g>
</svg>
