<svg xmlns="http://www.w3.org/2000/svg" width="38" height="37" viewBox="0 0 38 37">
    <g fill="none" fill-rule="evenodd">
        <g>
            <g>
                <g>
                    <g>
                        <g transform="translate(-47 -663) translate(24 522) translate(23.5 141) translate(5.143 5.143) translate(1.286 2.571)">
                            <path fill="#FFEB00" d="M0 22.721c0 1.653 1.345 2.993 3 2.993h22.285c1.657 0 3-1.334 3-2.993V6.851c0-1.654-1.343-2.994-3.004-2.994H21.58c-.557 0-1.255-.37-1.567-.837L18.558.837C18.25.375 17.552 0 16.991 0h-5.697c-.557 0-1.255.37-1.566.837L8.272 3.02c-.308.462-1.006.837-1.566.837H3.005C1.345 3.857 0 5.192 0 6.85v15.871z"/>
                            <circle cx="14.143" cy="14.143" r="6.429"/>
                            <path d="M3.865 9.04L5.143 9.04"/>
                        </g>
                    </g>
                    <g stroke="#000" stroke-linecap="round" stroke-linejoin="round" stroke-width="2">
                        <g transform="translate(-47 -663) translate(24 522) translate(23.5 141) translate(1.286 2.571)">
                            <path d="M0 22.721c0 1.653 1.345 2.993 3 2.993h22.285c1.657 0 3-1.334 3-2.993V6.851c0-1.654-1.343-2.994-3.004-2.994H21.58c-.557 0-1.255-.37-1.567-.837L18.558.837C18.25.375 17.552 0 16.991 0h-5.697c-.557 0-1.255.37-1.566.837L8.272 3.02c-.308.462-1.006.837-1.566.837H3.005C1.345 3.857 0 5.192 0 6.85v15.871z"/>
                            <circle cx="14.143" cy="14.143" r="6.429"/>
                            <path d="M3.865 9.04L5.143 9.04"/>
                        </g>
                    </g>
                </g>
            </g>
        </g>
    </g>
</svg>
