<svg xmlns="http://www.w3.org/2000/svg" width="24" height="24" viewBox="0 0 24 24">
    <g fill="none" fill-rule="evenodd">
        <g>
            <path fill="#EDEEF0" d="M5 5L3.888 18 1 17.721 1.235 5z" transform="translate(4 2.333)"/>
            <g stroke="#CED4DA" stroke-linecap="round" stroke-linejoin="round" stroke-width="2">
                <path d="M2.28 4.86h11.44c.87 0 1.589.682 1.635 1.55l.554 10.45c.048.903-.645 1.673-1.548 1.72l-.086.003H1.725c-.903 0-1.636-.733-1.636-1.636 0-.03 0-.058.002-.087L.645 6.41c.046-.868.764-1.55 1.634-1.55z" transform="translate(4 2.333)"/>
                <path d="M4.274 6.93V3.786C4.274 2.998 5.02.639 8 .639s3.726 2.36 3.726 3.146V6.93" transform="translate(4 2.333)"/>
            </g>
        </g>
    </g>
</svg>
