<svg xmlns="http://www.w3.org/2000/svg" xmlns:xlink="http://www.w3.org/1999/xlink" width="23" height="25" viewBox="0 0 23 25">
    <defs>
        <path id="1qzzr67jha" d="M0 0L13.695 0 13.695 7.021 0 7.021z"/>
        <path id="6t18xn9kic" d="M0 9.067L13.695 9.067 13.695 12.578 0 12.578z"/>
        <path id="5i6kenm0me" d="M0 6.288L13.695 6.288 13.695 9.799 0 9.799z"/>
        <path id="q9qfe1hlug" d="M0 14.624L13.695 14.624 13.695 18.135 0 18.135z"/>
        <path id="vgjzb1aw2i" d="M0 11.845L13.695 11.845 13.695 15.356 0 15.356z"/>
        <path id="pov4zyl2dk" d="M-8.617 -5.865L5.078 -5.865 5.078 1.155 -8.617 1.155z"/>
        <path id="q2usfq5b7m" d="M-8.617 3.202L2.387 3.202 2.387 6.712 -8.617 6.712z"/>
        <path id="0vqnwye1xo" d="M-8.617 0.424L0.692 0.424 0.692 3.934 -8.617 3.934z"/>
        <path id="re8yma0kzq" d="M-8.617 8.759L2.387 8.759 2.387 12.269 -8.617 12.269z"/>
        <path id="yl6zc7bqhs" d="M-8.617 5.981L2.387 5.981 2.387 9.491 -8.617 9.491z"/>
    </defs>
    <g fill="none" fill-rule="evenodd">
        <g>
            <g>
                <g>
                    <path fill="#FFF" d="M7.195 0c3.59 0 6.5 1.193 6.5 2.665 0 .084-.01.167-.028.25h.028v3.347c.668-.095 1.386-.147 2.133-.147 3.59 0 6.5 1.193 6.5 2.665 0 .076-.007.15-.023.225h.023v11.094h-.353l.006.101c0 1.434-2.76 2.603-6.218 2.663l-.282.003c-3.59 0-6.5-1.194-6.5-2.666 0-.033.001-.067.004-.1h-.352v-3.427c-.567.067-1.166.102-1.785.102-3.59 0-6.5-1.193-6.5-2.665 0-.034.001-.068.004-.102H0V2.916h.723c-.018-.083-.028-.166-.028-.25C.695 1.193 3.605 0 7.195 0z" transform="translate(-89 -305) translate(80 297) translate(9.305 9)"/>
                    <g transform="translate(-89 -305) translate(80 297) translate(9.305 9) translate(8.633 5.33)">
                        <mask id="xyjc6kovsb" fill="#fff">
                            <use xlink:href="#1qzzr67jha"/>
                        </mask>
                        <path fill="#0E1012" d="M6.848 1.095c-3.39 0-5.753 1.273-5.753 2.416 0 1.142 2.363 2.415 5.753 2.415S12.6 4.653 12.6 3.51c0-1.143-2.363-2.416-5.753-2.416m0 5.926C3.008 7.02 0 5.479 0 3.51 0 1.54 3.008 0 6.848 0s6.847 1.542 6.847 3.51c0 1.969-3.007 3.51-6.847 3.51" mask="url(#xyjc6kovsb)"/>
                        <mask id="i0hcjzk3nd" fill="#fff">
                            <use xlink:href="#6t18xn9kic"/>
                        </mask>
                        <path fill="#0E1012" d="M6.848 12.578C3.008 12.578 0 11.036 0 9.068h1.095c0 1.142 2.363 2.415 5.753 2.415S12.6 10.21 12.6 9.067h1.094c0 1.969-3.007 3.51-6.847 3.51" mask="url(#i0hcjzk3nd)"/>
                        <mask id="gqbfdzbrof" fill="#fff">
                            <use xlink:href="#5i6kenm0me"/>
                        </mask>
                        <path fill="#0E1012" d="M6.848 9.799C3.008 9.799 0 8.257 0 6.289h1.095c0 1.142 2.363 2.415 5.753 2.415S12.6 7.431 12.6 6.288h1.094c0 1.97-3.007 3.511-6.847 3.511" mask="url(#gqbfdzbrof)"/>
                        <mask id="fke8o8c4ph" fill="#fff">
                            <use xlink:href="#q9qfe1hlug"/>
                        </mask>
                        <path fill="#0E1012" d="M6.848 18.135c-3.84 0-6.848-1.542-6.848-3.51h1.095c0 1.142 2.363 2.415 5.753 2.415s5.753-1.273 5.753-2.416h1.094c0 1.969-3.007 3.51-6.847 3.51" mask="url(#fke8o8c4ph)"/>
                        <mask id="32hae0e93j" fill="#fff">
                            <use xlink:href="#vgjzb1aw2i"/>
                        </mask>
                        <path fill="#0E1012" d="M6.848 15.356c-3.84 0-6.848-1.542-6.848-3.51h1.095c0 1.142 2.363 2.415 5.753 2.415s5.753-1.273 5.753-2.416h1.094c0 1.97-3.007 3.511-6.847 3.511" mask="url(#32hae0e93j)"/>
                        <mask id="dv70fsli7l" fill="#fff">
                            <use xlink:href="#pov4zyl2dk"/>
                        </mask>
                        <path fill="#0E1012" d="M-1.77-4.77c-3.39 0-5.752 1.272-5.752 2.415S-5.16.061-1.77.061s5.753-1.273 5.753-2.416S1.62-4.77-1.77-4.77m0 5.926c-3.84 0-6.848-1.541-6.848-3.51 0-1.969 3.008-3.51 6.848-3.51s6.847 1.541 6.847 3.51c0 1.969-3.008 3.51-6.847 3.51" mask="url(#dv70fsli7l)"/>
                        <mask id="5l4ueg03qn" fill="#fff">
                            <use xlink:href="#q2usfq5b7m"/>
                        </mask>
                        <path fill="#0E1012" d="M-1.77 6.712c-3.84 0-6.847-1.541-6.847-3.51h1.095c0 1.143 2.363 2.416 5.753 2.416 1.374 0 2.711-.221 3.766-.623l.39 1.022c-1.193.455-2.63.695-4.156.695" mask="url(#5l4ueg03qn)"/>
                        <mask id="6upd88dk3p" fill="#fff">
                            <use xlink:href="#0vqnwye1xo"/>
                        </mask>
                        <path fill="#0E1012" d="M-1.77 3.934c-3.84 0-6.847-1.542-6.847-3.51h1.095c0 1.142 2.363 2.415 5.753 2.415.78 0 1.539-.068 2.257-.205L.692 3.71c-.786.149-1.613.224-2.461.224" mask="url(#6upd88dk3p)"/>
                        <mask id="78y7l8jr4r" fill="#fff">
                            <use xlink:href="#re8yma0kzq"/>
                        </mask>
                        <path fill="#0E1012" d="M-1.77 12.27c-3.84 0-6.847-1.542-6.847-3.511h1.095c0 1.143 2.363 2.416 5.753 2.416 1.374 0 2.712-.222 3.767-.623l.39 1.022c-1.194.455-2.631.695-4.157.695" mask="url(#78y7l8jr4r)"/>
                        <mask id="wupln19p3t" fill="#fff">
                            <use xlink:href="#yl6zc7bqhs"/>
                        </mask>
                        <path fill="#0E1012" d="M-1.77 9.491c-3.84 0-6.847-1.542-6.847-3.51h1.095c0 1.142 2.363 2.415 5.753 2.415 1.373 0 2.71-.221 3.767-.623l.39 1.023c-1.195.455-2.632.695-4.157.695" mask="url(#wupln19p3t)"/>
                    </g>
                </g>
            </g>
        </g>
    </g>
</svg>
