<svg xmlns="http://www.w3.org/2000/svg" width="100" height="100" viewBox="0 0 100 100">
    <g fill="none" fill-rule="evenodd">
        <g>
            <g transform="translate(-260 -38) translate(260 38)">
                <circle cx="69.222" cy="47.272" r="22.772" fill="#FFEB00"/>
                <circle cx="49.733" cy="50.96" r="14.779" fill="#FFF"/>
                <circle cx="49.733" cy="50.139" r="13.933" stroke="#000" stroke-width="4.975"/>
                <g stroke="#000" stroke-linecap="round" stroke-linejoin="round" stroke-width="4.975">
                    <g>
                        <path d="M.415 10.673L.415 0M.415 68.598L.415 57.925" transform="translate(15.007 15.656) translate(34.726)"/>
                    </g>
                    <g>
                        <path d="M.415 10.673L.415 0M.415 68.598L.415 57.925" transform="translate(15.007 15.656) rotate(90 17.779 51.846)"/>
                    </g>
                </g>
                <g stroke="#000" stroke-linecap="round" stroke-linejoin="round" stroke-width="4.975">
                    <g>
                        <path d="M.415 10.673L.415 0M.415 68.598L.415 57.925" transform="rotate(45 23.742 60.426) translate(34.726)"/>
                    </g>
                    <g>
                        <path d="M.415 10.673L.415 0M.415 68.598L.415 57.925" transform="rotate(45 23.742 60.426) rotate(90 17.779 51.846)"/>
                    </g>
                </g>
            </g>
        </g>
    </g>
</svg>
