<svg xmlns="http://www.w3.org/2000/svg" width="24" height="24" viewBox="0 0 24 24">
    <g fill="none" fill-rule="evenodd">
        <g>
            <path fill="#EDEEF0" d="M8.966 6.725L18.381 13.001 17.036 15.243 8.966 10.311z" transform="translate(3 2.5)"/>
            <path fill="#EDEEF0" d="M8.966 1.345H11.655999999999999V11.208H8.966z" transform="translate(3 2.5)"/>
            <g stroke="#CED4DA" stroke-linecap="round" stroke-linejoin="round" stroke-width="2">
                <path d="M16.288 15.691c1.078-1.584 1.645-3.442 1.645-5.503 0-5.458-4.417-9.74-9.863-9.74v9.887l8.218 5.356z" transform="translate(3 2.5)"/>
                <path d="M12.553 16.728c-1.319 1.035-2.978 1.653-4.782 1.653C3.479 18.38 0 14.884 0 10.57c0-3.475 2.258-6.42 5.38-7.433" transform="translate(3 2.5)"/>
            </g>
        </g>
    </g>
</svg>
