<svg xmlns="http://www.w3.org/2000/svg" xmlns:xlink="http://www.w3.org/1999/xlink" width="137" height="95" viewBox="0 0 137 95">
    <defs>
        <path id="z5jnkmc6wa" d="M0.448 0.392L10.92 0.392 10.92 18.916 0.448 18.916z"/>
    </defs>
    <g fill="none" fill-rule="evenodd">
        <g>
            <g>
                <path fill="#293F77" d="M70.947 56.966c-26.94.58-48.9 5.616-54.502 12.206 6.071 5.812 24.993 10.287 48.537 11.328 0 0 20.874 1.236 35.532-1.133 17.452-1.999 30.561-6.022 34.707-10.9-4.356-4.17-15.326-7.65-29.87-9.67 0 0-15.053-5.24-34.404-1.831" transform="translate(-112 -273) translate(112 273)"/>
                <path fill="#DD5858" d="M29.225 45.289c0 2.602-6.542 4.711-14.613 4.711C6.542 50 0 47.89 0 45.29c0-2.602 6.542-4.712 14.612-4.712s14.613 2.11 14.613 4.712" transform="translate(-112 -273) translate(112 273)"/>
                <g transform="translate(-112 -273) translate(112 273) translate(9 .108)">
                    <mask id="0s1d45ukqb" fill="#fff">
                        <use xlink:href="#z5jnkmc6wa"/>
                    </mask>
                    <path fill="#F7665F" d="M10.92 18.071L6.687 1.457C6.326.04 5.11.036 4.745 1.448L.448 18.065c1.573.482 3.35.851 5.234.851 1.885 0 3.664-.364 5.238-.845" mask="url(#0s1d45ukqb)"/>
                </g>
                <path fill="#F7665F" d="M23.125 30.76l-1.69-6.631c-1.903.717-4.233 1.385-6.753 1.385-2.527 0-4.863-.68-6.771-1.398l-1.75 6.765c2.39.834 5.236 1.567 8.3 1.567 3.22 0 6.203-.8 8.664-1.688M26.176 42.797c.016 0-1.114-4.434-1.114-4.434-2.746 1.134-6.48 2.477-10.602 2.477-3.956 0-7.557-1.253-10.269-2.344l-.973 3.763c-.135.298-.208.605-.208.92 0 2.693 5.194 4.877 11.602 4.877s11.603-2.184 11.603-4.877c0-.129-.016-.256-.039-.382" transform="translate(-112 -273) translate(112 273)"/>
                <path fill="#FFF" d="M25.062 38.363l-1.937-7.603c-2.46.889-5.445 1.688-8.665 1.688-3.063 0-5.91-.733-8.299-1.567l-1.97 7.616c2.712 1.09 6.313 2.343 10.27 2.343 4.12 0 7.855-1.342 10.601-2.477M21.436 24.129l-1.516-5.95c-1.574.481-3.353.846-5.238.846-1.884 0-3.661-.37-5.234-.851L7.91 24.116c1.908.717 4.244 1.399 6.771 1.399 2.52 0 4.85-.669 6.754-1.386" transform="translate(-112 -273) translate(112 273)"/>
                <path fill="#1E3059" d="M76.166 56.909c28.3 0 52.102 4.903 59.055 11.558.908-1.068 1.391-2.176 1.391-3.314 0-8.603-27.36-15.578-61.112-15.578S14.387 56.55 14.387 65.153c0 1.39.718 2.737 2.057 4.019 5.96-7.01 30.433-12.263 59.722-12.263" transform="translate(-112 -273) translate(112 273)"/>
                <path fill="#DD5858" d="M136.49 89.072c0 3.057-7.687 5.536-17.169 5.536s-17.168-2.479-17.168-5.536c0-3.057 7.686-5.535 17.168-5.535s17.17 2.478 17.17 5.535" transform="translate(-112 -273) translate(112 273)"/>
                <path fill="#F7665F" d="M125.557 57.22L120.583 37.7c-.424-1.663-1.851-1.67-2.28-.01l-5.05 19.524c1.849.566 3.936 1 6.15 1 2.215 0 4.305-.428 6.154-.993M129.323 72.003l-1.985-7.792c-2.237.843-4.974 1.628-7.934 1.628-2.97 0-5.715-.801-7.957-1.643l-2.055 7.949c2.806.98 6.151 1.84 9.75 1.84 3.784 0 7.29-.938 10.181-1.982M132.908 86.145c.019 0-1.309-5.209-1.309-5.209-3.226 1.333-7.615 2.91-12.457 2.91-4.648 0-8.879-1.472-12.065-2.753l-1.143 4.42c-.16.35-.245.711-.245 1.08 0 3.166 6.103 5.731 13.632 5.731 7.53 0 13.633-2.565 13.633-5.73 0-.151-.018-.3-.046-.449" transform="translate(-112 -273) translate(112 273)"/>
                <path fill="#FFF" d="M131.6 80.936l-2.277-8.933c-2.891 1.044-6.397 1.983-10.18 1.983-3.6 0-6.945-.86-9.752-1.841l-2.314 8.947c3.186 1.282 7.417 2.753 12.065 2.753 4.843 0 9.23-1.576 12.457-2.909M127.338 64.211l-1.781-6.99c-1.85.564-3.939.992-6.154.992-2.214 0-4.302-.433-6.15-1l-1.806 6.983c2.242.842 4.986 1.643 7.956 1.643 2.96 0 5.698-.785 7.935-1.628" transform="translate(-112 -273) translate(112 273)"/>
            </g>
        </g>
    </g>
</svg>
