<svg xmlns="http://www.w3.org/2000/svg" width="100" height="100" viewBox="0 0 100 100">
    <g fill="none" fill-rule="evenodd">
        <g>
            <g>
                <g transform="translate(-260 -38) translate(260 38) translate(11 15)">
                    <circle cx="54.667" cy="32.5" r="23" fill="#F7B500"/>
                    <g stroke="#000" stroke-width="5">
                        <circle cx="38.667" cy="29.29" r="10.833"/>
                        <path fill="#FFF" d="M24 26.457c4.468 0 8.475 1.975 11.194 5.1.373.43.722.879 1.044 1.347.512-.237 1.035-.435 1.566-.595 1.117-.338 2.302-.519 3.53-.519 3.36 0 6.4 1.362 8.602 3.564 2.202 2.201 3.564 5.243 3.564 8.603 0 3.312-1.324 6.315-3.471 8.51-2.146 2.192-5.116 3.577-8.409 3.653h0L24 56.123c-4.096 0-7.804-1.66-10.489-4.344-2.684-2.685-4.344-6.393-4.344-10.489 0-4.096 1.66-7.804 4.344-10.489 2.685-2.684 6.393-4.344 10.489-4.344z"/>
                        <path fill="#FFF" d="M22.667 26.457c5.969 0 11.332 2.593 15.025 6.714.371.415.726.845 1.062 1.289.51-.218 1.026-.408 1.548-.571 1.588-.498 3.278-.766 5.031-.766 4.649 0 8.857 1.884 11.903 4.93 3.047 3.047 4.93 7.255 4.93 11.904 0 4.594-1.84 8.76-4.825 11.797-2.985 3.038-7.114 4.949-11.69 5.033h0l-23.613.003c-5.426-.17-10.313-2.483-13.842-6.119C4.671 57.04 2.5 52.085 2.5 46.623c0-5.569 2.257-10.61 5.907-14.26 3.65-3.65 8.69-5.906 14.26-5.906z"/>
                        <path stroke-linecap="round" stroke-linejoin="round" d="M23.333 15.957L16.734 9.357"/>
                        <path stroke-linecap="round" stroke-linejoin="round" d="M61.266 17.29L54.667 10.69" transform="matrix(-1 0 0 1 115.933 0)"/>
                        <path stroke-linecap="round" stroke-linejoin="round" d="M42.633 8.266L36.034 1.667" transform="scale(1 -1) rotate(45 51.324 0)"/>
                    </g>
                </g>
            </g>
        </g>
    </g>
</svg>
