<svg xmlns="http://www.w3.org/2000/svg" xmlns:xlink="http://www.w3.org/1999/xlink" width="92" height="75" viewBox="0 0 92 75">
    <defs>
        <path id="cxkzlrjy4a" d="M0 0L73 0 73 58.064 0 58.064z"/>
        <path id="lqa7d24l6c" d="M0 0L73 0 73 58.064 0 58.064z"/>
    </defs>
    <g fill="none" fill-rule="evenodd">
        <g>
            <g>
                <g transform="translate(-134 -308) translate(134.28 309) translate(5.4 15.5)">
                    <mask id="mxusahtvib" fill="#fff">
                        <use xlink:href="#cxkzlrjy4a"/>
                    </mask>
                    <path fill="#FFEB00" d="M70.677 29.032c0 .641-.52 1.161-1.161 1.161H41.645V10.782c0-3.295-1.445-6.434-3.906-8.46h23.648c5.131 0 9.29 4.16 9.29 9.291v17.419z" mask="url(#mxusahtvib)"/>
                    <path fill="#FFEB00" d="M39.323 30.193H23.064v-1.322h10.315c1.907 0 3.46-1.552 3.46-3.46V8.266c0-1.908-1.553-3.46-3.46-3.46h-8.021c2.328-2.397 6.042-3.283 9.432-1.65 2.849 1.373 4.533 4.396 4.533 7.558v19.479z" mask="url(#mxusahtvib)"/>
                    <path fill="#FFEB00" d="M20.742 26.871H3.46c-.805 0-1.46-.655-1.46-1.46V8.266c0-.805.655-1.46 1.46-1.46h29.919c.805 0 1.46.655 1.46 1.46v17.145c0 .805-.655 1.46-1.46 1.46H20.742z" mask="url(#mxusahtvib)"/>
                    <path fill="#FFEB00" d="M32.355 1c-.086 0-.161.031-.241.048-3.89-.346-7.625 1.529-9.705 4.758H3.46C1.552 5.806 0 7.358 0 9.266v17.145c0 1.908 1.552 3.46 3.46 3.46h17.282v3.645h22.064v19.225c0 1.283 1.04 2.323 2.323 2.323h4.645c1.283 0 2.322-1.04 2.322-2.323V33.516h19.743c.641 0 1.161-.52 1.161-1.162V12.613C73 6.199 67.801 1 61.387 1H32.355z" mask="url(#mxusahtvib)"/>
                    <path fill="#FFEB00" d="M27.38 23.58c.344.345.903.345 1.248 0 .344-.345.344-.904 0-1.25l-6.375-6.374 6.057-3.533c.421-.245.564-.786.318-1.208-.246-.422-.787-.564-1.209-.318l-8.945 5.219c-.275.16-.615.16-.89 0l-8.945-5.22c-.422-.245-.963-.103-1.209.319-.245.422-.103.963.32 1.208l6.055 3.533L7.43 22.33c-.344.345-.344.904 0 1.249.345.345.905.345 1.25 0l6.7-6.7.002-.005 2.202 1.285c.275.16.615.16.89 0l2.202-1.285.003.005 6.7 6.7z" mask="url(#mxusahtvib)"/>
                </g>
                <g stroke="#000" stroke-linecap="round" stroke-linejoin="round" stroke-width="1.5">
                    <path d="M20.5 2.5L20.5 14.5M12.5 7.5L12.5 30.5M.5.5L.5 6.5" transform="translate(-134 -308) translate(134.28 309) translate(70.441)"/>
                </g>
                <g>
                    <g transform="translate(-134 -308) translate(134.28 309) translate(0 12.1)">
                        <mask id="gn0cnh1tsd" fill="#fff">
                            <use xlink:href="#lqa7d24l6c"/>
                        </mask>
                        <path fill="#000" d="M70.677 29.032c0 .641-.52 1.161-1.161 1.161H41.645V10.782c0-3.295-1.445-6.434-3.906-8.46h23.648c5.131 0 9.29 4.16 9.29 9.291v17.419zm-20.903 5.807v18.58c0 1.283-1.04 2.322-2.323 2.322-1.282 0-2.322-1.039-2.322-2.322v-18.58c0-1.284 1.04-2.323 2.322-2.323 1.283 0 2.323 1.039 2.323 2.323zm-10.451-4.646H23.064v-1.322h10.315c1.907 0 3.46-1.552 3.46-3.46V8.266c0-1.908-1.553-3.46-3.46-3.46h-8.021c2.328-2.397 6.042-3.283 9.432-1.65 2.849 1.373 4.533 4.396 4.533 7.558v19.479zm-18.581-3.322H3.46c-.805 0-1.46-.655-1.46-1.46V8.266c0-.805.655-1.46 1.46-1.46h29.919c.805 0 1.46.655 1.46 1.46v17.145c0 .805-.655 1.46-1.46 1.46H20.742zM61.387 0H32.355c-.086 0-.161.031-.241.048-3.89-.346-7.625 1.529-9.705 4.758H3.46C1.552 4.806 0 6.358 0 8.266v17.145c0 1.908 1.552 3.46 3.46 3.46h17.282v3.645h22.064v23.225c0 1.283 1.04 2.323 2.323 2.323h4.645c1.283 0 2.322-1.04 2.322-2.323V32.516h19.743c.641 0 1.161-.52 1.161-1.162V11.613C73 5.199 67.801 0 61.387 0z" mask="url(#gn0cnh1tsd)"/>
                    </g>
                    <path fill="#000" d="M27.38 23.58c.344.345.903.345 1.248 0 .344-.345.344-.904 0-1.25l-6.375-6.374 6.057-3.533c.421-.245.564-.786.318-1.208-.246-.422-.787-.564-1.209-.318l-8.945 5.219c-.275.16-.615.16-.89 0l-8.945-5.22c-.422-.245-.963-.103-1.209.319-.245.422-.103.963.32 1.208l6.055 3.533L7.43 22.33c-.344.345-.344.904 0 1.249.345.345.905.345 1.25 0l6.7-6.7.002-.005 2.202 1.285c.275.16.615.16.89 0l2.202-1.285.003.005 6.7 6.7z" transform="translate(-134 -308) translate(134.28 309) translate(0 12.1)"/>
                </g>
            </g>
        </g>
    </g>
</svg>
