<svg xmlns="http://www.w3.org/2000/svg" xmlns:xlink="http://www.w3.org/1999/xlink" width="84" height="69" viewBox="0 0 84 69">
    <defs>
        <path id="blgo6c9kia" d="M0.16 0.4L60.96 0.4 60.96 48.4 0.16 48.4z"/>
    </defs>
    <g fill="none" fill-rule="evenodd">
        <g>
            <g>
                <g>
                    <g>
                        <g transform="translate(-145 -308) translate(24 309) translate(122) translate(0 16) translate(7.84 2)">
                            <mask id="f1eglmkr6b" fill="#fff">
                                <use xlink:href="#blgo6c9kia"/>
                            </mask>
                            <path fill="#FFEB00" d="M21.728.4c-1.795 0-3.262 1.485-3.262 3.3l.252 1.348H7.873c-1.794 0 .292 2.725 1.046 4.125l9.49 16.724c0 .548 1.382-.345.696.452L.902 43.003c-.754.878-2.569 3.486-.775 3.486l3.968.014-.737.892c-.754.993.097 1.805 1.891 1.805h35.17c1.795 0 3.88-.812 4.633-1.805l13.694-16.567c.262-.345.326-.666.23-.941.218-.62-.43-1.099-1.657-1.195h.003c.076-.01.15-.02.222-.035l.028-.006c.096-.02.187-.044.273-.072l.068-.023c.045-.016.09-.031.132-.05 1.232-.472 2.115-1.677 2.115-3.083V3.7c0-1.815-1.468-3.3-3.262-3.3h-35.17z" mask="url(#f1eglmkr6b)"/>
                        </g>
                        <g fill="#000">
                            <path stroke="#000" stroke-width="1.2" d="M61.996 25.895c0 .5-.131.981-.365 1.405-.047-.274-.149-.555-.303-.839L52.035 9.397c-.844-1.55-3.15-2.811-5.14-2.811H19.889V3.78c0-1.62 1.318-2.94 2.94-2.94h36.227c1.62 0 2.94 1.32 2.94 2.94v22.115zM46.52 48.008c-.697.908-2.73 1.674-4.44 1.674H5.856c-1.036 0-1.639-.284-1.777-.564-.096-.195.035-.432.151-.584l.634-.758h34.015c1.976 0 4.19-.765 5.068-1.745L59.05 33.025 46.52 48.008zM.856 46.43c-.057-.124.059-.296.145-.4l17.285-14.883c.016-.013.03-.028.043-.043.613-.704 2.336-1.341 3.936-1.458.198.02.363.03.519.03h36.272c.044 0 .089-.003.133-.006l.096-.005c.026 0 .052-.003.078-.004l.04-.002h0l.044-.005.034-.005.02-.002c.773.066 1.174.285 1.284.454.029.044.05.098.015.198h0c-.027.076-.074.153-.14.233L43.376 45.414c-.015.013-.03.027-.043.042-.697.802-2.737 1.48-4.455 1.48H2.651c-1.237 0-1.715-.332-1.795-.507h0zM18.38 26.461L9.088 9.397c-.19-.347-.36-.854-.1-1.292.256-.432.868-.68 1.68-.68H46.894c1.685 0 3.702 1.088 4.403 2.374l9.292 17.064c.228.418.29.808.178 1.126-.1.282-.338.51-.69.657l-.022.009-.05.019-.039.013-.06.02c-.079.025-.16.046-.242.063l-.024.006h-.001 0l-.087.015-.115.015h-.001 0-.003 0l-.038.006-.064.008h-.006 0c-.025.003-.05.004-.074.005l-.053.002h-.002l-.05.003c-.045.002-.09.005-.136.005H22.784c-.087 0-.183-.006-.286-.014-.052-.018-.108-.027-.166-.022l-.05.003c-1.6-.186-3.273-1.187-3.901-2.34h0zM22.829.001c-2.085 0-3.78 1.695-3.78 3.78v2.805h-8.382c-1.114 0-1.99.397-2.402 1.09-.36.607-.33 1.36.086 2.123l9.293 17.064c.507.933 1.528 1.759 2.71 2.27-1.138.318-2.126.823-2.637 1.395L.429 45.414c-.016.013-.03.027-.043.042-.512.59-.404 1.08-.295 1.321.29.635 1.222.999 2.56.999h1.117l-.194.232c-.52.676-.38 1.218-.25 1.48.324.657 1.246 1.034 2.531 1.034h36.227c2 0 4.242-.88 5.094-1.988l14.116-16.88c.384-.5.407-.927.336-1.228.057-.275.014-.548-.138-.783-.124-.19-.311-.35-.552-.479 1.155-.67 1.898-1.917 1.898-3.27V3.78c0-2.084-1.696-3.78-3.78-3.78H22.829z" transform="translate(-145 -308) translate(24 309) translate(122) translate(0 16)"/>
                            <path d="M17.019 14.926c-.193 0-.349-.336-.349-.75s.156-.75.349-.75h29.303c.192 0 .348.336.348.75s-.156.75-.348.75H17.019zM33.713 36.56c.722-.858 1.14-1.499 1.256-1.923.115-.423-.088-.636-.61-.637-.511 0-1.048.196-1.61.589-.563.393-1.188.989-1.876 1.786l-2.564 3.049c-.748.89-1.176 1.543-1.282 1.956-.107.413.102.62.624.62.504 0 1.045-.2 1.624-.6.578-.402 1.23-1.032 1.958-1.89l2.48-2.95zm.671 2.513c-1.292 1.578-2.659 2.794-4.1 3.648-1.443.855-2.837 1.281-4.185 1.279-1.36-.002-2.059-.434-2.097-1.296-.04-.862.583-2.076 1.866-3.643l1.748-2.134c1.292-1.577 2.658-2.793 4.1-3.648 1.442-.855 2.84-1.28 4.194-1.279 1.353.002 2.05.434 2.088 1.296.039.862-.586 2.08-1.873 3.652l-1.74 2.125z" transform="translate(-145 -308) translate(24 309) translate(122) translate(0 16)"/>
                        </g>
                    </g>
                    <path stroke="#000" stroke-linecap="round" stroke-linejoin="round" stroke-width="1.5" d="M81.5 2.5L81.5 14.5M73.5 7.5L73.5 30.5M61.5.5L61.5 6.5" transform="translate(-145 -308) translate(24 309) translate(122)"/>
                </g>
            </g>
        </g>
    </g>
</svg>
