<svg xmlns="http://www.w3.org/2000/svg" xmlns:xlink="http://www.w3.org/1999/xlink" width="24" height="24" viewBox="0 0 24 24">
    <defs>
        <path id="o121czapna" d="M0 0L23.852 0 23.852 21.913 0 21.913z"/>
    </defs>
    <g fill="none" fill-rule="evenodd">
        <g>
            <g>
                <g>
                    <path fill="#000" d="M9.533 8.008l-.8 2.281h1.624l-.799-2.278c-.009 0-.016-.003-.025-.003" transform="translate(-168.000000, -270.000000) translate(168.000000, 270.000000) translate(0.089888, 1.043670)"/>
                    <g transform="translate(-168.000000, -270.000000) translate(168.000000, 270.000000) translate(0.089888, 1.043670)">
                        <mask id="ef78k3ei6b" fill="#fff">
                            <use xlink:href="#o121czapna"/>
                        </mask>
                        <path fill="#000" d="M20.576 12.48c-.253.192-.615.14-.805-.114l-1.71-2.243-.367.367v1.462c0 .356-.288.644-.644.644-.355 0-.643-.288-.643-.644v-4.74c0-.356.288-.644.643-.644.356 0 .644.288.644.644v1.676l2.021-2.022c.222-.22.58-.22.802 0 .22.221.22.58 0 .801l-1.634 1.634 1.808 2.373c.19.254.14.616-.115.806zm-5.068.076h-2.37c-.298 0-.538-.242-.538-.54 0-.034.003-.069.01-.102-.006-.034-.01-.067-.01-.103v-4.6c0-.355.288-.643.643-.643.356 0 .644.288.644.644v4.267h1.621c.298 0 .538.24.538.538 0 .297-.24.539-.538.539zm-3.743.008c-.3.105-.63-.053-.735-.353l-.295-.844h-2.38l-.295.844c-.105.3-.435.458-.735.353-.3-.106-.458-.435-.352-.736l1.709-4.584c.01-.027.021-.052.033-.078.07-.339.42-.598.845-.598.382 0 .703.21.814.5l.006.006 1.738 4.754c.106.301-.053.63-.353.736zm-5.709-.548c0 .152-.062.301-.17.41-.107.106-.256.168-.408.168h-.126c-.153 0-.302-.062-.408-.169-.109-.108-.17-.258-.17-.41V7.839H3.638c-.327 0-.593-.266-.593-.594 0-.327.266-.593.593-.593h3.488c.328 0 .594.266.594.593 0 .328-.266.594-.594.594h-1.07v4.178zM11.926 0C5.34 0 0 4.22 0 9.428c0 3.39 2.262 6.36 5.658 8.022-.25.931-.903 3.374-1.035 3.896-.161.649.238.64.5.465.205-.136 3.268-2.218 4.59-3.117.717.106 1.456.163 2.213.163 6.587 0 11.926-4.222 11.926-9.429S18.512 0 11.926 0z" mask="url(#ef78k3ei6b)"/>
                    </g>
                </g>
            </g>
        </g>
    </g>
</svg>
