<svg xmlns="http://www.w3.org/2000/svg" width="24" height="24" viewBox="0 0 24 24">
    <g fill="none" fill-rule="evenodd">
        <g>
            <path fill="#FFEB00" d="M9.8 0L1 7.463 1 16.683 2.32 18 3.64 18 3.64 8.78 12 1.756z" transform="translate(3 3)"/>
            <path stroke="#000" stroke-linecap="round" stroke-linejoin="round" stroke-width="2" d="M.646 6.835L9.002 0h0L18 7.364v8.876c0 .972-.788 1.76-1.76 1.76H1.76C.788 18 0 17.212 0 16.24V8.198C0 7.67.237 7.17.646 6.835z" transform="translate(3 3)"/>
            <path stroke="#000" stroke-linecap="round" stroke-linejoin="round" stroke-width="2" d="M12 18v-4.503C12 12.117 10.882 11 9.503 11h0C8.121 11 7 12.12 7 13.503V18h5z" transform="translate(3 3)"/>
        </g>
    </g>
</svg>
