<svg xmlns="http://www.w3.org/2000/svg" xmlns:xlink="http://www.w3.org/1999/xlink" width="24" height="25" viewBox="0 0 24 25">
    <defs>
        <path id="5tj60rwbla" d="M0 0L23.968 0 23.968 24 0 24z"/>
    </defs>
    <g fill="none" fill-rule="evenodd">
        <g>
            <g>
                <g>
                    <path fill="#FFF" d="M4.732 16.663L2.981 21.716 10.951 16.663 22.325 16.663 23.458 15.499 23.458 1.227 22.325 0 1.459 0 0.657 1.04 0.657 15.808 1.652 16.663z" transform="translate(-87 -186) translate(80 177) translate(7.016 9.851)"/>
                    <path fill="#EC0A0A" d="M12.308 13.178L7.605 8.226c-.638-1.279-.475-2.274.49-2.985 1.446-1.067 3.62.478 4.167 1.108.548.631 1.235-.744 2.3-1.108 1.063-.364 2.739.06 2.739 1.108 0 1.05.923 1.69-1.332 3.8-1.504 1.407-2.724 2.417-3.661 3.03z" transform="translate(-87 -186) translate(80 177) translate(7.016 9.851)"/>
                    <g>
                        <g transform="translate(-87 -186) translate(80 177) translate(7.016 9.851)">
                            <mask id="ohzisa2spb" fill="#fff">
                                <use xlink:href="#5tj60rwbla"/>
                            </mask>
                            <path fill="#000" d="M2.078 1.163c-.504 0-.915.41-.915.915v13.7c0 .505.41.915.915.915h3.386l-1.533 4.391 6.527-4.39H21.89c.504 0 .914-.41.914-.915v-13.7c0-.505-.41-.916-.914-.916H2.078zM1.68 24l2.145-6.143H2.078C.932 17.857 0 16.925 0 15.779v-13.7C0 .931.932 0 2.078 0H21.89c1.145 0 2.078.932 2.078 2.078v13.7c0 1.147-.933 2.079-2.078 2.079H10.812L1.682 24z" mask="url(#ohzisa2spb)"/>
                        </g>
                        <path fill="#000" d="M12.308 14.448L7.53 9.67c-1.165-1.165-1.165-3.063 0-4.228 1.166-1.166 3.064-1.167 4.23 0l.548.548.548-.548c1.166-1.166 3.064-1.167 4.23 0 1.165 1.165 1.165 3.063 0 4.228l-.823-.822c.712-.712.712-1.872 0-2.584s-1.872-.713-2.584 0l-1.37 1.371-1.372-1.371c-.712-.712-1.872-.712-2.584 0s-.712 1.872 0 2.584l3.955 3.955 3.955-3.955.823.822-4.778 4.778z" transform="translate(-87 -186) translate(80 177) translate(7.016 9.851)"/>
                    </g>
                </g>
            </g>
        </g>
    </g>
</svg>
