<svg xmlns="http://www.w3.org/2000/svg" width="26" height="26" viewBox="0 0 26 26">
    <g fill="none" fill-rule="evenodd">
        <g transform="translate(0 1)">
            <circle cx="15" cy="13" r="11" fill="#FFEB00"/>
            <g stroke="#000" stroke-linecap="round" stroke-linejoin="round" stroke-width="2">
                <g transform="translate(1 1)">
                    <path d="M7.5 7.75c.138 0 .25.112.25.25s-.112.25-.25.25-.25-.112-.25-.25.112-.25.25-.25M14.5 7.75c-.138 0-.25.112-.25.25s.112.25.25.25.25-.112.25-.25-.112-.25-.25-.25M6 12.5c.841 2.12 2.813 3.5 5 3.5s4.159-1.38 5-3.5"/>
                    <circle cx="11" cy="11" r="11"/>
                </g>
            </g>
        </g>
    </g>
</svg>
