<svg xmlns="http://www.w3.org/2000/svg" width="24" height="24" viewBox="0 0 24 24">
    <g fill="none" fill-rule="evenodd">
        <g>
            <g>
                <g>
                    <path fill="#EDEEF0" d="M9.8 0L1 7.463 1 16.683 2.32 18 3.64 18 3.64 8.78 12 1.756z" transform="translate(-33 -3) translate(33 3) translate(3 3)"/>
                    <path stroke="#CED4DA" stroke-linecap="round" stroke-linejoin="round" stroke-width="2.167" d="M.7 6.791L9.001 0h0L18 7.364v8.73C18 17.145 17.146 18 16.093 18H1.907C.854 18 0 17.146 0 16.093V8.267c0-.572.257-1.113.7-1.476z" transform="translate(-33 -3) translate(33 3) translate(3 3)"/>
                    <path stroke="#CED4DA" stroke-linecap="round" stroke-linejoin="round" stroke-width="2.167" d="M12 18v-4.503C12 12.117 10.882 11 9.503 11h0C8.121 11 7 12.12 7 13.503V18h5z" transform="translate(-33 -3) translate(33 3) translate(3 3)"/>
                </g>
            </g>
        </g>
    </g>
</svg>
