<svg xmlns="http://www.w3.org/2000/svg" width="27" height="26" viewBox="0 0 27 26">
    <g fill="none" fill-rule="evenodd">
        <g>
            <g>
                <g>
                    <g>
                        <g>
                            <path fill="#FFEB00" d="M16.72 0c1.114 0 2.161.44 2.948 1.238.787.798 1.22 1.861 1.22 2.993 0 1.131-.433 2.194-1.22 2.993l-7.102 7.21-7.1-7.21c-.788-.8-1.222-1.862-1.222-2.993 0-1.132.434-2.194 1.221-2.993.527-.535.969.187 1.538.722.418-.27.903-.413 1.41-.413.364 0 .716.074 1.04.215.733-.492 1.444-.995 1.908-.524l1.411-.017 1 .017C14.558.439 15.605 0 16.719 0z" transform="translate(-24 -655) translate(0 218) translate(24 437) translate(0 2) translate(1.13)"/>
                            <path fill="#000" stroke="#000" stroke-width=".5" d="M4.169 1.547c-.707 0-1.37.278-1.87.785-.499.507-.773 1.18-.773 1.899 0 .717.274 1.391.774 1.898l6.022 6.115 6.023-6.116c1.03-1.046 1.03-2.749 0-3.796-.478-.485-1.16-.763-1.87-.763-.71 0-1.39.278-1.869.763l-2.284 2.32-2.284-2.32c-.5-.507-1.163-.785-1.87-.785h0zM1.22 7.224C.434 6.424 0 5.362 0 4.23c0-1.132.434-2.194 1.221-2.993C2.007.439 3.054 0 4.169 0S6.33.44 7.117 1.238l1.205 1.224 1.206-1.224C10.314.439 11.36 0 12.475 0c1.115 0 2.162.44 2.948 1.238.787.798 1.22 1.861 1.22 2.993 0 1.131-.433 2.194-1.22 2.993l-7.101 7.21-7.101-7.21z" transform="translate(-24 -655) translate(0 218) translate(24 437) translate(0 2) translate(1.13)"/>
                        </g>
                        <path fill="#000" stroke="#000" stroke-width=".5" d="M24.792 19.357l-.056-.001h-5.758l-.839 1.344-3.266-5.44-2.486 4.339-1.506-.615-1.81 1.446-2.379-2.181-1.814 1.473H.698l-.043-.004-.05.004c-.339.024-.605.302-.605.634 0 .33.266.61.605.633l.047.006h4.693l1.295-1.052 2.374 2.177 2.084-1.669 1.854.758 1.947-3.396 3.219 5.36 1.587-2.544h5.037l.042.004c.359 0 .65-.286.65-.638 0-.347-.287-.633-.642-.638" transform="translate(-24 -655) translate(0 218) translate(24 437) translate(0 2)"/>
                    </g>
                </g>
            </g>
        </g>
    </g>
</svg>
