<svg xmlns="http://www.w3.org/2000/svg" width="26" height="26" viewBox="0 0 26 26">
    <g fill="none" fill-rule="evenodd">
        <g>
            <g>
                <g>
                    <path fill="#FFEB00" d="M16.516 0v.043c-.009.406-.1 3.592-1.058 4.85C19.233 6.468 22 11.462 22 16.177 22 21.867 17.97 24 13 24s-9-2.133-9-7.823c0-4.715 2.767-9.709 6.542-11.284C9.518 3.548 9.485 0 9.485 0h7.03zM7 12.5h11" transform="translate(-24 -1273) translate(24 1273) translate(1 1)"/>
                    <path stroke="#000" stroke-linecap="round" stroke-linejoin="round" stroke-width="1.7" d="M11.072 4.683c.99-1.222 1.023-4.449 1.023-4.449H5.3s.033 3.227 1.022 4.45C2.674 6.115 0 10.655 0 14.943c0 5.174 3.894 7.113 8.697 7.113 4.804 0 8.698-1.94 8.698-7.114 0-4.287-2.674-8.827-6.323-10.26z" transform="translate(-24 -1273) translate(24 1273) translate(1 1)"/>
                </g>
                <path stroke="#000" stroke-linecap="round" stroke-linejoin="round" stroke-width="1.113" d="M12.954 11.227L11.089 17.047 9.223 11.227 7.358 17.047 5.493 11.227M4.958 12.72L13.49 12.72" transform="translate(-24 -1273) translate(24 1273)"/>
            </g>
        </g>
    </g>
</svg>
