<svg xmlns="http://www.w3.org/2000/svg" xmlns:xlink="http://www.w3.org/1999/xlink" width="64" height="63" viewBox="0 0 64 63">
    <defs>
        <path id="xkcyhxsxua" d="M0 0.32L30.99 0.32 30.99 48.967 0 48.967z"/>
    </defs>
    <g fill="none" fill-rule="evenodd">
        <g>
            <g>
                <g>
                    <path fill="#000" stroke="#000" stroke-width=".693" d="M36.605 37.149c-4.11-1.16-7.12-4.937-7.12-9.417 0-5.403 4.38-9.783 9.783-9.783 1.9 0 3.67.549 5.17 1.487-2.745-2.585-6.441-4.172-10.51-4.172-1.229 0-2.42.148-3.565.42-3.711 2.727-6.131 7.107-6.131 12.048v5.155c.194.094.4.197.623.307.377.189 1.079.481 1.976.826 3.211 1.237 8.94 3.158 11.354 3.495" transform="translate(-272 -80) translate(272 82) translate(0 .69)"/>
                    <path fill="#FFDB00" d="M40.961 42.605v-.003c-.153.018-.307.031-.462.044.307-.018.462-.04.462-.04" transform="translate(-272 -80) translate(272 82) translate(0 .69)"/>
                    <path fill="#000" stroke="#000" stroke-width=".693" d="M24.231 57.958c0 .695.52 1.32 1.285 1.32h2.641c.695 0 1.32-.625 1.32-1.32V40.488c-1.877-.68-3.775-1.437-5.246-2.041v19.51z" transform="translate(-272 -80) translate(272 82) translate(0 .69)"/>
                    <path fill="#FFDB00" d="M35.005 42.152L34.292 42c.25.06.49.111.713.152M29.478 40.488c.707.256 1.411.5 2.089.723-.685-.268-1.303-.54-2.09-.788v.065z" transform="translate(-272 -80) translate(272 82) translate(0 .69)"/>
                    <path fill="#4263EB" stroke="#4263EB" stroke-width=".693" d="M39.268 12.765c-3.326 0-6.408 1.085-8.905 2.92 1.144-.273 2.113.004 3.342.004 4.069 0 8.432 1.95 10.734 3.747 2.138 1.336 3.726 3.47 4.336 5.99.178.74.276 1.512.276 2.306 0 .092-.005.184-.008.275-.145 5.276-4.465 9.509-9.775 9.509-.396 0-.787-.024-1.172-.07l.088.07c-2.413-.338-8.142-2.26-11.353-3.495-.897-.345-1.6-.638-1.976-.827l-.623-.307c-1.121-.55-1.775-.837-1.947-.912-.361-.189-.72-.376-1.09-.576C7.356 23.905 5.2 21.996 5.2 21.996L1.095 25.67s2.155 1.91 15.996 9.403c1.55.84 3.03 1.58 4.438 2.235l.09.04c2.256 1.045 4.324 1.87 6.188 2.518.551.21 1.11.42 1.67.623v-.064c.787.246 1.405.52 2.09.788.992.325 1.924.6 2.725.788l.712.152h.004c2.94.536 4.716.536 5.491.494.155-.013.31-.026.462-.044 1.203-.135 2.361-.415 3.461-.818 5.726-2.101 9.813-7.597 9.813-14.052 0-7.136-4.995-13.102-11.68-14.6-1.058-.238-2.157-.367-3.287-.367z" transform="translate(-272 -80) translate(272 82) translate(0 .69)"/>
                    <path fill="#FFDB00" d="M38.097 37.446c-.51-.06-1.009-.16-1.492-.298" transform="translate(-272 -80) translate(272 82) translate(0 .69)"/>
                    <g transform="translate(-272 -80) translate(272 82) translate(0 .69) translate(0 .373)">
                        <mask id="cr59l7tbvb" fill="#fff">
                            <use xlink:href="#xkcyhxsxua"/>
                        </mask>
                        <path fill="#000" stroke="#000" stroke-width=".693" d="M29.6.848h-3.406c-.417 0-1.042.348-1.32.695L5.35 20.127V1.988c0-.903-.765-1.668-1.668-1.668H1.668C.695.32 0 1.085 0 1.988V47.3c0 .904.695 1.668 1.668 1.668h2.015c.903 0 1.668-.764 1.668-1.668V27.156l3.494-3.722L30.433 3.28c1.112-1.043.417-2.433-.834-2.433" mask="url(#cr59l7tbvb)"/>
                    </g>
                </g>
                <g stroke="#000" stroke-linecap="round" stroke-linejoin="round" stroke-width="2.772">
                    <path d="M5.551 0L5.551 11.132M0 5.576L11.105 5.576" transform="translate(-272 -80) translate(272 82) translate(51.366)"/>
                </g>
            </g>
        </g>
    </g>
</svg>
